<?xml version="1.0" encoding="UTF-8" standalone="no"?>
<!-- Created with Inkscape (http://www.inkscape.org/) -->

<svg
   version="1.1"
   id="svg2"
   width="200"
   height="175"
   viewBox="0 0 200 175"
   sodipodi:docname="G_de_gonette.svg"
   inkscape:version="1.1 (c68e22c387, 2021-05-23)"
   xmlns:inkscape="http://www.inkscape.org/namespaces/inkscape"
   xmlns:sodipodi="http://sodipodi.sourceforge.net/DTD/sodipodi-0.dtd"
   xmlns="http://www.w3.org/2000/svg"
   xmlns:svg="http://www.w3.org/2000/svg">
  <defs
     id="defs6" />
  <sodipodi:namedview
     id="namedview4"
     pagecolor="#ffffff"
     bordercolor="#666666"
     borderopacity="1.0"
     inkscape:pageshadow="2"
     inkscape:pageopacity="0.0"
     inkscape:pagecheckerboard="true"
     showgrid="false"
     inkscape:zoom="1.4298115"
     inkscape:cx="181.49245"
     inkscape:cy="269.61595"
     inkscape:window-width="1920"
     inkscape:window-height="1049"
     inkscape:window-x="0"
     inkscape:window-y="0"
     inkscape:window-maximized="1"
     inkscape:current-layer="g8" />
  <g
     inkscape:groupmode="layer"
     inkscape:label="Image"
     id="g8">
    <path
       style="fill:#df5430;fill-opacity:1;stroke:none;stroke-width:1.12414px;stroke-linecap:butt;stroke-linejoin:miter;stroke-opacity:1"
       d="m 140.0758,3.7025219 34.2891,-2.73699003 6.24709,68.44154013 -43.15809,4.28842 c -3.84403,-42.35814 -64.319669,-35.49234 -74.933589,-0.43398 7.2443,0.0448 8.47651,-2.8814 18.69064,-10.90754 L 97.61081,79.041802 C 87.589401,86.492412 78.375471,94.353021 61.790101,98.470841 l 1.6028,10.550499 23.16555,-11.497939 13.701739,17.987229 -21.350479,12.37139 c 14.654479,13.61308 38.567149,12.57479 58.797599,-7.25935 l -0.38276,-10.16968 -14.52329,0.55671 -2.54908,-24.438298 76.9566,-6.72743 2.79122,24.976398 -9.48322,1.42251 5.11648,57.74636 -46.72973,2.9963 -8.40216,-11.99277 C 123.54966,176.50308 68.050551,190.99607 34.060201,134.42747 22.263621,131.87063 10.592731,129.00323 0,123.47172 l 12.973021,-18.93448 12.46806,4.24013 -0.96827,-11.638919 c -9.00981,-1.53441 -15.97304,-5.8937 -23.145951,-9.963569 l 12.136751,-19.72112 10.90482,5.83096 C 41.376681,0.12197187 102.26878,-9.2651276 136.42943,21.351772 Z"
       id="path3131"
       sodipodi:nodetypes="cccccccccccccccccccccccccccccccc"
       inkscape:export-filename="/home/susomaltese/Documents/016. Lyon Sauvetage Métropole/02. Trésorerie/05. Gonettes/Gonette/G_de_gonette.svg"
       inkscape:export-xdpi="320"
       inkscape:export-ydpi="320" />
  </g>
</svg>
